<?xml version="1.0" encoding="iso-8859-1"?>
<!-- Generator: Adobe Illustrator 19.1.0, SVG Export Plug-In . SVG Version: 6.00 Build 0)  -->
<svg version="1.1" id="Capa_1" xmlns="http://www.w3.org/2000/svg" xmlns:xlink="http://www.w3.org/1999/xlink" x="0px" y="0px"
	 viewBox="0 0 488.652 488.652" style="enable-background:new 0 0 488.652 488.652;" xml:space="preserve">
<g>
	<g>
		<path d="M302.839,302.835c-2.2,2.2-3.5,5.3-3.5,8.5s1.3,6.3,3.5,8.5s5.3,3.5,8.5,3.5s6.3-1.3,8.5-3.5s3.5-5.3,3.5-8.5
			s-1.3-6.3-3.5-8.5s-5.3-3.5-8.5-3.5C308.139,299.235,305.039,300.535,302.839,302.835z"/>
		<path d="M376.539,376.535c-4.7,4.7-4.7,12.3,0,17c2.3,2.4,5.4,3.5,8.5,3.5s6.1-1.2,8.5-3.5c4.7-4.7,4.7-12.3,0-17
			S381.239,371.835,376.539,376.535z"/>
		<path d="M339.639,339.635c-4.7,4.7-4.7,12.3,0,17c2.3,2.3,5.4,3.5,8.5,3.5s6.1-1.2,8.5-3.5c4.7-4.7,4.7-12.3,0-17
			C351.939,334.935,344.339,334.935,339.639,339.635z"/>
		<path d="M421.939,409.935c-3.2,0-6.3,1.3-8.5,3.5s-3.5,5.3-3.5,8.5s1.3,6.3,3.5,8.5s5.3,3.5,8.5,3.5c3.1,0,6.3-1.3,8.5-3.5
			s3.5-5.3,3.5-8.5s-1.3-6.3-3.5-8.5C428.139,411.235,425.039,409.935,421.939,409.935z"/>
		<path d="M485.139,370.535l-134.8-134.7c-11.8-11.8-17.6-28.9-15.4-45.5c6.9-52.3-10.5-103.7-47.8-141
			c-18.9-18.9-42.3-33.2-67.5-41.3c-24.5-7.8-50.8-10-76.3-6.2c-8,1.2-14.5,6.7-17.1,14.4c-2.5,7.7-0.6,16,5.2,21.7l47.3,47.4
			c8.6,8.6,13.3,20,13.3,32.2s-4.7,23.6-13.3,32.2l-29.1,29.1c-8.6,8.6-20,13.3-32.2,13.3s-23.6-4.7-32.2-13.3l-47.3-47.3
			c-5.7-5.7-14-7.7-21.7-5.2s-13.2,9.1-14.4,17.1c-3.8,25.5-1.7,51.8,6.2,76.3c8.1,25.3,22.4,48.6,41.3,67.5
			c31.9,31.9,74.2,49.3,118.5,49.3c7.4,0,14.9-0.5,22.4-1.5c16.7-2.2,33.7,3.6,45.5,15.4l134.7,134.7c2.3,2.3,5.4,3.5,8.5,3.5
			s6.1-1.2,8.5-3.5c4.7-4.7,4.7-12.3,0-17l-134.6-134.7c-17.1-17.1-41.6-25.4-65.6-22.2c-44.9,5.9-88.9-9-120.9-41
			c-30.9-30.9-46.2-74.6-41.4-118l43.4,43.5c13.1,13.1,30.6,20.4,49.1,20.4s36-7.2,49.1-20.4l29.1-29.1
			c13.1-13.1,20.4-30.6,20.4-49.1s-7.2-36-20.4-49.1l-43.4-43.4c43.3-4.8,87,10.5,117.9,41.3c32,32,46.9,76,41,120.9
			c-3.2,24,5.1,48.6,22.2,65.6l134.7,134.7c4.7,4.7,12.3,4.7,17,0C489.839,382.835,489.839,375.235,485.139,370.535z"/>
	</g>
</g>
<g>
</g>
<g>
</g>
<g>
</g>
<g>
</g>
<g>
</g>
<g>
</g>
<g>
</g>
<g>
</g>
<g>
</g>
<g>
</g>
<g>
</g>
<g>
</g>
<g>
</g>
<g>
</g>
<g>
</g>
</svg>
